<svg xmlns="http://www.w3.org/2000/svg" viewBox="0 0 64 64" role="img" aria-label="Visit the Cape">
  <rect width="64" height="64" rx="12" fill="#12100e"/>
  <defs>
    <linearGradient id="b" x1="0%" y1="0%" x2="100%" y2="100%">
      <stop offset="0%" stop-color="#d4b07a"/>
      <stop offset="45%" stop-color="#b8956a"/>
      <stop offset="100%" stop-color="#8f6f45"/>
    </linearGradient>
  </defs>
  <path fill="url(#b)" d="M12 46V18h8.2l7.8 16.4L35.8 18H44v28h-7.2V29.8L29.6 46h-5.2L19.2 29.8V46H12zm22.4 0V18h7.2c6.8 0 11.2 3.6 11.2 9.4 0 4.2-2.2 7.4-5.8 8.6L54 46h-8.1l-6.9-9.2h-1.6V46H34.4zm7.2-14.8c2.6 0 4.1-1.2 4.1-3.2s-1.5-3.2-4.1-3.2h-3.4v6.4h3.4z"/>
</svg>
